<?xml version="1.0" standalone="no"?>
<!DOCTYPE svg PUBLIC "-//W3C//DTD SVG 20010904//EN"
 "http://www.w3.org/TR/2001/REC-SVG-20010904/DTD/svg10.dtd">
<svg version="1.0" xmlns="http://www.w3.org/2000/svg"
 width="1000.000000pt" height="1000.000000pt" viewBox="0 0 1000.000000 1000.000000"
 preserveAspectRatio="xMidYMid meet">

<g transform="translate(0.000000,1000.000000) scale(0.100000,-0.100000)"
fill="#000000" stroke="none">
<path d="M0 5000 l0 -5000 5000 0 5000 0 0 5000 0 5000 -5000 0 -5000 0 0
-5000z m8535 1147 l59 -53 -24 -48 c-20 -42 -21 -52 -11 -86 6 -21 26 -51 43
-65 28 -23 39 -27 80 -23 27 3 56 12 66 22 28 24 43 20 95 -27 37 -34 47 -51
47 -75 0 -17 4 -34 10 -37 11 -7 50 -128 50 -155 0 -10 -13 -23 -30 -30 -88
-36 -103 -155 -29 -226 26 -25 39 -29 92 -31 l62 -1 24 -73 c22 -68 22 -74 8
-105 -17 -35 -35 -42 -562 -206 l-140 -44 -77 -149 -77 -150 -1 -153 0 -152
-26 -10 c-33 -13 -175 -13 -208 0 l-26 10 0 145 0 145 -130 259 c-148 297
-148 271 3 271 94 0 100 4 67 50 -28 40 -84 64 -132 56 -37 -6 -40 -5 -53 27
-40 96 -42 171 -6 185 10 4 166 169 345 367 364 400 379 415 405 415 10 0 44
-24 76 -53z m-6413 -45 c105 -29 177 -63 275 -128 356 -240 489 -715 311
-1108 -40 -87 -784 -1153 -810 -1160 -10 -2 -27 3 -37 12 -40 36 -765 1080
-797 1149 -104 220 -101 524 5 745 91 190 255 353 444 441 175 83 415 102 609
49z m1528 -1021 c11 -21 14 -132 4 -168 -6 -21 -12 -23 -123 -25 l-116 -3 -3
-57 -3 -58 79 0 c47 0 83 -5 90 -12 12 -12 16 -106 6 -145 -6 -22 -12 -23 -90
-23 l-84 0 0 -60 0 -60 114 0 c88 0 116 -3 126 -15 16 -19 16 -144 1 -173 -12
-22 -14 -22 -239 -20 l-227 3 -3 405 c-1 223 0 411 3 417 3 10 58 13 229 13
213 0 226 -1 236 -19z m440 6 c23 -11 28 -29 77 -267 28 -140 52 -257 53 -260
1 -3 24 112 50 254 29 154 54 263 62 267 25 16 79 21 173 17 52 -2 96 -6 99
-8 8 -9 -206 -795 -220 -810 -12 -12 -44 -15 -164 -15 -93 0 -153 4 -160 11
-7 7 -220 789 -220 810 0 16 219 17 250 1z m1192 -42 c4 -27 4 -72 0 -100 l-7
-50 -118 -3 -117 -3 0 -59 0 -59 82 -3 82 -3 8 -39 c5 -21 5 -59 0 -85 l-7
-46 -83 -3 -82 -3 0 -59 0 -60 115 0 115 0 11 -27 c11 -29 7 -151 -5 -172 -10
-16 -447 -16 -464 1 -9 9 -12 115 -12 413 0 221 3 405 7 409 4 3 110 5 237 4
l231 -3 7 -50z m462 35 c8 -8 56 -96 108 -195 l93 -180 3 191 c2 189 3 192 25
198 29 8 146 7 175 0 l22 -6 0 -404 0 -404 -26 -10 c-32 -13 -155 -13 -186 -1
-18 7 -50 57 -119 187 l-94 178 -3 -174 c-2 -150 -5 -177 -19 -187 -17 -13
-167 -18 -197 -7 -14 5 -16 51 -16 414 0 317 3 410 13 414 6 3 56 4 109 3 70
-2 102 -7 112 -17z m1186 1 c5 -11 10 -52 10 -91 0 -104 -5 -110 -95 -110
l-75 0 0 -304 c0 -216 -3 -307 -11 -312 -16 -9 -167 -10 -201 -1 l-28 7 0 305
0 305 -75 0 c-90 0 -95 6 -95 110 0 118 -22 110 290 110 256 0 270 -1 280 -19z
m414 13 c14 -5 16 -42 16 -305 l0 -299 100 0 c88 0 100 -2 110 -19 13 -25 13
-151 0 -185 l-10 -26 -204 0 c-200 0 -205 0 -220 22 -14 19 -16 76 -16 414 0
305 3 393 13 397 18 8 192 8 211 1z"/>
<path d="M8133 5807 c-171 -188 -308 -343 -304 -345 8 -3 1011 314 1019 323 3
3 -10 22 -30 41 -34 34 -37 35 -59 21 -50 -32 -139 -25 -184 14 -64 57 -81
121 -51 194 15 34 14 35 -22 65 -20 16 -41 30 -47 29 -5 0 -150 -154 -322
-342z"/>
<path d="M8477 5617 l-348 -111 7 -29 c4 -20 2 -32 -7 -38 -17 -10 -39 8 -39
32 0 11 -3 19 -6 19 -18 0 -355 -113 -360 -121 -3 -5 3 -34 12 -64 17 -54 18
-55 57 -55 21 0 54 -7 73 -16 40 -19 90 -76 99 -113 4 -14 15 -35 25 -46 9
-11 35 -69 55 -128 21 -59 43 -106 48 -104 6 2 30 50 54 108 23 57 47 113 53
124 8 15 8 29 0 50 -7 18 -7 32 -1 38 16 16 39 0 46 -32 l7 -31 77 0 c77 0 78
0 74 24 -6 31 169 370 203 392 39 26 94 -4 94 -51 0 -13 -41 -104 -92 -201
-73 -142 -97 -179 -118 -187 -19 -7 -37 -29 -59 -74 -17 -35 -27 -63 -23 -63
18 0 608 192 619 202 16 13 16 42 -1 87 -10 29 -16 33 -54 36 -166 13 -233
218 -105 324 l35 29 -16 56 c-14 47 -20 56 -39 55 -12 -1 -179 -51 -370 -112z
m-31 -171 c59 -50 21 -146 -57 -146 -29 0 -43 7 -63 31 -34 40 -33 74 3 110
37 36 79 38 117 5z m-264 -117 c23 -59 23 -102 1 -97 -19 4 -58 110 -49 134
10 26 30 10 48 -37z m593 -54 c27 -26 32 -60 14 -98 -16 -35 -51 -51 -93 -43
-99 19 -82 166 19 166 25 0 44 -8 60 -25z"/>
<path d="M8368 5419 c-27 -15 -23 -57 7 -71 19 -8 28 -8 40 2 21 18 19 57 -4
70 -23 12 -22 12 -43 -1z"/>
<path d="M8686 5244 c-23 -22 -20 -41 9 -60 24 -16 27 -16 45 1 11 10 20 24
20 31 0 17 -28 44 -45 44 -7 0 -21 -7 -29 -16z"/>
<path d="M8536 5316 c-47 -90 -86 -171 -86 -179 0 -19 12 -28 26 -19 17 12
185 343 179 353 -17 26 -41 -5 -119 -155z"/>
<path d="M1789 5597 c-107 -30 -190 -102 -242 -206 -29 -60 -32 -73 -32 -161
1 -83 4 -102 28 -151 41 -84 98 -143 175 -181 62 -31 74 -33 167 -33 87 0 107
3 157 27 76 35 138 95 178 170 61 115 53 264 -21 378 -42 65 -102 114 -177
143 -60 24 -174 31 -233 14z"/>
</g>
</svg>
